<svg width="22" height="23" viewBox="0 0 22 23" fill="none" xmlns="http://www.w3.org/2000/svg">
<path d="M19.9884 9.58219H19.25V9.54415H11V13.2108H16.1805C15.4247 15.3453 13.3939 16.8775 11 16.8775C7.9626 16.8775 5.49998 14.4149 5.49998 11.3775C5.49998 8.34011 7.9626 5.87748 11 5.87748C12.402 5.87748 13.6776 6.4064 14.6488 7.27036L17.2416 4.67757C15.6044 3.15177 13.4145 2.21082 11 2.21082C5.93769 2.21082 1.83331 6.31519 1.83331 11.3775C1.83331 16.4398 5.93769 20.5441 11 20.5441C16.0623 20.5441 20.1666 16.4398 20.1666 11.3775C20.1666 10.7629 20.1034 10.1629 19.9884 9.58219Z" fill="#FFC107"/>
<path d="M2.89026 7.11086L5.90197 9.31957C6.71688 7.30198 8.69047 5.87748 11 5.87748C12.4021 5.87748 13.6776 6.4064 14.6488 7.27036L17.2416 4.67757C15.6044 3.15177 13.4145 2.21082 11 2.21082C7.47909 2.21082 4.42568 4.19861 2.89026 7.11086Z" fill="#FF3D00"/>
<path d="M11 20.5441C13.3677 20.5441 15.5191 19.638 17.1458 18.1645L14.3087 15.7637C13.3884 16.4609 12.2444 16.8775 11 16.8775C8.61573 16.8775 6.59127 15.3572 5.82861 13.2356L2.83936 15.5387C4.35644 18.5073 7.43736 20.5441 11 20.5441Z" fill="#4CAF50"/>
<path d="M19.9884 9.58217H19.25V9.54413H11V13.2108H16.1805C15.8175 14.2361 15.158 15.1202 14.3073 15.7642L14.3087 15.7633L17.1458 18.164C16.945 18.3464 20.1667 15.9608 20.1667 11.3775C20.1667 10.7628 20.1034 10.1629 19.9884 9.58217Z" fill="#1976D2"/>
</svg>
