<svg width="26" height="49" viewBox="0 0 26 49" fill="none" xmlns="http://www.w3.org/2000/svg">
<path d="M17.2708 0C18.6154 1.07735 18.7648 1.49632 18.7648 3.44153C18.7648 5.57627 18.7648 5.93539 18.1872 6.99777C18.1365 7.08336 18.1052 7.17908 18.0956 7.27813C18.086 7.37717 18.0982 7.47712 18.1315 7.57089C18.1648 7.66466 18.2182 7.74995 18.2881 7.82072C18.358 7.89148 18.4425 7.94598 18.5358 7.98035C23.5157 9.72107 25.6771 13.9108 25.6621 17.8211C25.6605 17.9151 25.6398 18.0078 25.6013 18.0936C25.5627 18.1793 25.5072 18.2563 25.438 18.3199L23.944 19.6566C23.8751 19.7201 23.82 19.7971 23.7823 19.883C23.7445 19.9688 23.725 20.0616 23.7249 20.1554V22.3899C23.7218 22.4819 23.7374 22.5735 23.7708 22.6593C23.8042 22.745 23.8547 22.8231 23.9191 22.8886L25.4131 24.385C25.4771 24.4509 25.5273 24.529 25.5606 24.6147C25.594 24.7003 25.6099 24.7918 25.6073 24.8837V35.6422C25.6083 35.7348 25.5907 35.8267 25.5556 35.9123C25.5206 35.998 25.4687 36.0757 25.4032 36.141L23.9092 37.5725C23.8425 37.6372 23.7896 37.7147 23.7536 37.8004C23.7177 37.8862 23.6994 37.9783 23.7 38.0713V40.1412C23.7017 40.2361 23.7234 40.3297 23.7638 40.4156C23.8041 40.5016 23.8621 40.578 23.9341 40.6399L25.4081 41.8968C25.478 41.9602 25.5343 42.037 25.5737 42.1227C25.6131 42.2085 25.6347 42.3013 25.6372 42.3956C25.6372 43.9318 25.6372 45.2187 24.9599 46.5055C24.6016 47.2334 24.0457 47.8454 23.3561 48.2715C22.6664 48.6976 21.8709 48.9205 21.0606 48.9146C15.5826 49.0443 10.0698 48.9994 4.57185 48.9545C2.27109 48.9545 0.0898578 46.6302 0.00021791 44.3109C0.00021791 43.7473 0.00021791 43.1787 0.00021791 42.5802C-0.00217944 42.4869 0.0152275 42.3943 0.0512858 42.3083C0.0873441 42.2223 0.141231 42.145 0.209378 42.0814L1.70338 40.6449C1.77102 40.581 1.82457 40.5036 1.86059 40.4177C1.89661 40.3318 1.91431 40.2393 1.91254 40.1462V38.1511C1.9112 38.057 1.89062 37.9642 1.85207 37.8784C1.81353 37.7926 1.75784 37.7157 1.68844 37.6523L0.313957 36.4552C0.244084 36.3922 0.188073 36.3154 0.14949 36.2295C0.110908 36.1436 0.0905996 36.0506 0.0898578 35.9565V24.764C0.0864997 24.6716 0.102487 24.5794 0.136793 24.4935C0.171098 24.4076 0.222964 24.3299 0.289057 24.2653L1.78306 22.7689C1.848 22.7037 1.89878 22.6257 1.93221 22.5399C1.96563 22.4541 1.98097 22.3622 1.97728 22.2702V20.325C1.97715 20.2307 1.95712 20.1375 1.9185 20.0516C1.87988 19.9656 1.82354 19.8888 1.75318 19.8262L0.274117 18.5693C0.14527 18.4535 0.0651621 18.2931 0.0500178 18.1204C-0.159142 15.5467 0.861757 13.5317 2.14161 11.5166C3.34677 9.61134 5.21427 8.85819 7.21125 8.02524C7.3091 7.98709 7.39649 7.92619 7.46621 7.84756C7.53594 7.76893 7.586 7.67482 7.61227 7.573C7.63854 7.47118 7.64026 7.36457 7.61729 7.26195C7.59432 7.15933 7.54732 7.06365 7.48017 6.98281C6.65349 5.87055 6.95229 4.48895 6.94233 3.18217C6.94233 1.57113 7.13655 1.03745 8.35167 0.0448895L17.2708 0ZM5.98617 19.0581C5.98617 18.8795 6.057 18.7082 6.18308 18.582C6.30916 18.4557 6.48016 18.3847 6.65847 18.3847H21.698C22.3853 18.3847 23.1024 18.4895 23.6153 17.6615C23.6789 17.5527 23.7116 17.4285 23.71 17.3024C23.6742 16.1476 23.3885 15.0143 22.8726 13.9809C22.3567 12.9476 21.6229 12.0387 20.722 11.3171C19.7451 10.4544 18.5638 9.85677 17.2908 9.58141C16.0806 9.37691 15.6822 8.58387 15.1892 7.85067C15.1288 7.75754 15.0462 7.68095 14.9488 7.62783C14.8514 7.57471 14.7423 7.54673 14.6314 7.54642H11.001C10.879 7.54678 10.7594 7.5804 10.655 7.64366C10.5506 7.70692 10.4653 7.79745 10.4084 7.90554C10.2231 8.35308 9.92359 8.74396 9.53987 9.03897C9.15616 9.33399 8.70174 9.52278 8.22219 9.5864C7.01703 9.79588 5.86665 10.6588 4.81587 11.4019C3.56589 12.2897 3.11271 13.7561 2.42547 15.0729C2.00529 15.8446 1.86788 16.7392 2.03704 17.6017C2.15655 18.2401 2.75913 18.295 3.28701 18.3748C3.44628 18.3976 3.59195 18.4773 3.69718 18.5992C3.80242 18.7211 3.86014 18.877 3.85971 19.0381V23.6318C3.85953 23.7682 3.81801 23.9013 3.74065 24.0135C3.66328 24.1257 3.55372 24.2118 3.42645 24.2603L2.46531 24.6244C2.33765 24.6723 2.22769 24.7582 2.15023 24.8705C2.07278 24.9829 2.03153 25.1163 2.03205 25.2528V35.2283C2.03166 35.3714 2.07683 35.511 2.161 35.6267C2.24518 35.7424 2.36399 35.8282 2.50017 35.8717L3.49617 36.2408C3.62703 36.2871 3.74035 36.3729 3.8206 36.4863C3.90085 36.5997 3.94409 36.7352 3.94437 36.8742V41.3981C3.94303 41.5505 3.89083 41.6981 3.79608 41.8174C3.70133 41.9367 3.56947 42.0209 3.42147 42.0565C2.03205 42.3956 1.90756 42.6949 2.00218 44.0914C2.03025 44.8697 2.35619 45.6073 2.91245 46.1514C3.46872 46.6956 4.21268 47.0045 4.99017 47.0142C10.2391 47.0442 15.488 47.0142 20.7369 47.0142C21.2571 47.0028 21.768 46.8732 22.2309 46.6352C23.6353 45.7972 24.0835 43.9019 23.0675 42.2909C23.0072 42.1999 22.9249 42.1257 22.8282 42.0752C22.7316 42.0246 22.6238 41.9993 22.5148 42.0016H6.62859C6.53729 42.0017 6.44692 41.9832 6.363 41.9472C6.27907 41.9112 6.20335 41.8585 6.14044 41.7922C6.07753 41.7259 6.02876 41.6475 5.9971 41.5617C5.96544 41.476 5.95155 41.3847 5.95629 41.2933L5.98617 40.6599C5.99515 40.4879 6.07008 40.326 6.19533 40.208C6.32059 40.09 6.4865 40.0249 6.65847 40.0265H20.9909C21.1688 40.0251 21.339 39.9538 21.4648 39.8278C21.5906 39.7018 21.6619 39.5313 21.6632 39.3531V38.7845C21.6632 38.6059 21.5924 38.4347 21.4663 38.3084C21.3402 38.1821 21.1692 38.1112 20.9909 38.1112H6.66843C6.57912 38.1132 6.49033 38.0972 6.4073 38.0642C6.32428 38.0312 6.24871 37.9818 6.18508 37.919C6.12146 37.8562 6.07107 37.7813 6.0369 37.6986C6.00273 37.616 5.98548 37.5273 5.98617 37.4378V36.8343C5.98617 36.6557 6.057 36.4845 6.18308 36.3582C6.30916 36.2319 6.48016 36.161 6.65847 36.161H7.48017C12.246 36.161 17.0069 36.161 21.7678 36.161C22.465 36.161 23.1173 36.161 23.5705 35.5475C23.6475 35.4382 23.6876 35.3071 23.6851 35.1734C23.6851 32.1558 23.6851 29.0984 23.6851 26.0459C23.7324 25.7348 23.6949 25.4167 23.5766 25.1252C23.4583 24.8337 23.2634 24.5797 23.0128 24.39C22.9024 24.311 22.7699 24.2691 22.6343 24.2702H6.69831C6.52132 24.2702 6.35159 24.1998 6.22644 24.0745C6.1013 23.9491 6.03099 23.7792 6.03099 23.6019V22.9435C6.03033 22.8553 6.04711 22.7679 6.08035 22.6862C6.11359 22.6045 6.16264 22.5303 6.22467 22.4677C6.2867 22.4051 6.36049 22.3554 6.44178 22.3215C6.52307 22.2876 6.61025 22.2702 6.69831 22.2702H20.9261C21.1045 22.2702 21.2755 22.1992 21.4015 22.073C21.5276 21.9467 21.5984 21.7754 21.5984 21.5968V20.9484C21.5945 20.7729 21.5218 20.606 21.396 20.4837C21.2702 20.3615 21.1014 20.2937 20.9261 20.295H6.65349C6.56543 20.295 6.47825 20.2776 6.39696 20.2437C6.31567 20.2098 6.24188 20.1601 6.17985 20.0975C6.11782 20.0349 6.06877 19.9607 6.03553 19.879C6.00229 19.7973 5.98551 19.7099 5.98617 19.6217V19.0581ZM10.8566 1.60106C10.1793 1.60106 9.48212 1.49632 9.04388 2.14971C8.9882 2.25536 8.964 2.37482 8.97416 2.49386V4.78821C8.97416 4.96547 9.04447 5.13547 9.16962 5.26081C9.29476 5.38615 9.4645 5.45657 9.64148 5.45657H16.1155C16.285 5.44522 16.444 5.36998 16.5604 5.24598C16.6769 5.12198 16.7421 4.95842 16.743 4.78821V2.5188C16.743 2.24447 16.5886 1.59607 16.3147 1.59607" fill="white"/>
</svg>
