<svg width="29" height="31" viewBox="0 0 29 31" fill="none" xmlns="http://www.w3.org/2000/svg">
<path d="M19.2006 14.2423C22.7563 14.2423 25.6008 17.0473 25.6008 20.5536C25.6008 21.7879 25.2452 22.952 24.6194 23.9197L29 28.2675L27.0231 30.217L22.5856 25.9113C21.6042 26.5144 20.438 26.865 19.2006 26.865C15.6449 26.865 12.8004 24.06 12.8004 20.5536C12.8004 17.0473 15.6449 14.2423 19.2006 14.2423ZM19.2006 17.0473C18.2576 17.0473 17.3532 17.4167 16.6864 18.0743C16.0195 18.7319 15.6449 19.6237 15.6449 20.5536C15.6449 21.4836 16.0195 22.3754 16.6864 23.033C17.3532 23.6905 18.2576 24.06 19.2006 24.06C20.1436 24.06 21.048 23.6905 21.7148 23.033C22.3816 22.3754 22.7563 21.4836 22.7563 20.5536C22.7563 19.6237 22.3816 18.7319 21.7148 18.0743C21.048 17.4167 20.1436 17.0473 19.2006 17.0473ZM17.0672 5.98142L8.5336 3.02209V19.6981L9.95586 20.189V20.5536C9.95586 21.4513 10.0839 22.3208 10.3257 23.1343L8.5336 22.5172L0.938696 25.4204L0.711133 25.4625C0.522529 25.4625 0.341649 25.3886 0.208286 25.2571C0.0749229 25.1256 0 24.9472 0 24.7612V3.55505C0 3.23247 0.21334 2.98001 0.512016 2.88184L8.5336 0.217041L17.0672 3.16234L24.6621 0.217041H24.8897C25.0783 0.217041 25.2591 0.290924 25.3925 0.422436C25.5259 0.553948 25.6008 0.732317 25.6008 0.918303V13.9758C23.9367 12.405 21.6896 11.4372 19.2006 11.4372C18.4895 11.4372 17.7783 11.5214 17.0672 11.6757V5.98142Z" fill="white"/>
</svg>
