<svg width="29" height="25" viewBox="0 0 29 25" fill="none" xmlns="http://www.w3.org/2000/svg">
<path d="M2.9 0.217285C2.13087 0.217285 1.39325 0.533356 0.84939 1.09596C0.305535 1.65857 0 2.42164 0 3.21729V9.21729C1.6095 9.21729 2.9 10.5673 2.9 12.2173C2.9 13.0129 2.59447 13.776 2.05061 14.3386C1.50675 14.9012 0.769128 15.2173 0 15.2173V21.2173C0 22.0129 0.305535 22.776 0.84939 23.3386C1.39325 23.9012 2.13087 24.2173 2.9 24.2173H26.1C26.8691 24.2173 27.6068 23.9012 28.1506 23.3386C28.6945 22.776 29 22.0129 29 21.2173V15.2173C28.2309 15.2173 27.4932 14.9012 26.9494 14.3386C26.4055 13.776 26.1 13.0129 26.1 12.2173C26.1 10.5523 27.405 9.21729 29 9.21729V3.21729C29 1.55229 27.695 0.217285 26.1 0.217285H2.9ZM19.575 4.71729L21.75 6.96729L9.425 19.7173L7.25 17.4673L19.575 4.71729ZM9.8745 4.77729C11.2955 4.77729 12.441 5.96229 12.441 7.43229C12.441 8.13644 12.1706 8.81174 11.6893 9.30965C11.208 9.80756 10.5552 10.0873 9.8745 10.0873C8.4535 10.0873 7.308 8.90229 7.308 7.43229C7.308 6.72814 7.5784 6.05283 8.05971 5.55492C8.54102 5.05701 9.19382 4.77729 9.8745 4.77729ZM19.1255 14.3473C20.5465 14.3473 21.692 15.5323 21.692 17.0023C21.692 17.7064 21.4216 18.3817 20.9403 18.8797C20.459 19.3776 19.8062 19.6573 19.1255 19.6573C17.7045 19.6573 16.559 18.4723 16.559 17.0023C16.559 16.2981 16.8294 15.6228 17.3107 15.1249C17.792 14.627 18.4448 14.3473 19.1255 14.3473Z" fill="white"/>
</svg>
