<svg width="29" height="30" viewBox="0 0 29 30" fill="none" xmlns="http://www.w3.org/2000/svg">
<path d="M14.5033 20.3107C13.1196 20.3107 11.7925 19.761 10.8141 18.7825C9.83561 17.8041 9.28592 16.477 9.28592 15.0933C9.28592 13.7096 9.83561 12.3825 10.8141 11.4041C11.7925 10.4256 13.1196 9.87593 14.5033 9.87593C15.887 9.87593 17.2141 10.4256 18.1925 11.4041C19.171 12.3825 19.7207 13.7096 19.7207 15.0933C19.7207 16.477 19.171 17.8041 18.1925 18.7825C17.2141 19.761 15.887 20.3107 14.5033 20.3107ZM25.579 16.5393C25.6387 16.0622 25.6834 15.5852 25.6834 15.0933C25.6834 14.6014 25.6387 14.1094 25.579 13.6026L28.7244 11.1728C29.0076 10.9492 29.0821 10.5467 28.9032 10.2188L25.9219 5.06104C25.743 4.73309 25.3405 4.59893 25.0126 4.73309L21.3008 6.22377C20.5256 5.6424 19.7207 5.13557 18.7815 4.7629L18.23 0.812608C18.1704 0.454845 17.8573 0.186523 17.4846 0.186523H11.5219C11.1493 0.186523 10.8362 0.454845 10.7766 0.812608L10.225 4.7629C9.28592 5.13557 8.48096 5.6424 7.7058 6.22377L3.99402 4.73309C3.66607 4.59893 3.26359 4.73309 3.08471 5.06104L0.103351 10.2188C-0.090437 10.5467 -0.000996223 10.9492 0.282232 11.1728L3.42756 13.6026C3.36793 14.1094 3.32321 14.6014 3.32321 15.0933C3.32321 15.5852 3.36793 16.0622 3.42756 16.5393L0.282232 19.0138C-0.000996223 19.2374 -0.090437 19.6399 0.103351 19.9678L3.08471 25.1256C3.26359 25.4535 3.66607 25.5728 3.99402 25.4535L7.7058 23.9479C8.48096 24.5442 9.28592 25.051 10.225 25.4237L10.7766 29.374C10.8362 29.7317 11.1493 30.0001 11.5219 30.0001H17.4846C17.8573 30.0001 18.1704 29.7317 18.23 29.374L18.7815 25.4237C19.7207 25.0361 20.5256 24.5442 21.3008 23.9479L25.0126 25.4535C25.3405 25.5728 25.743 25.4535 25.9219 25.1256L28.9032 19.9678C29.0821 19.6399 29.0076 19.2374 28.7244 19.0138L25.579 16.5393Z" fill="white"/>
</svg>
