<svg width="32" height="33" viewBox="0 0 32 33" fill="none" xmlns="http://www.w3.org/2000/svg">
<path d="M28.7018 13.95H27.6537V13.896H15.9425V19.1009H23.2964C22.2236 22.1309 19.3407 24.3059 15.9425 24.3059C11.6308 24.3059 8.13502 20.8101 8.13502 16.4985C8.13502 12.1868 11.6308 8.69101 15.9425 8.69101C17.9327 8.69101 19.7434 9.44182 21.1221 10.6682L24.8026 6.98768C22.4786 4.82176 19.3699 3.48604 15.9425 3.48604C8.75637 3.48604 2.93005 9.31235 2.93005 16.4985C2.93005 23.6846 8.75637 29.5109 15.9425 29.5109C23.1286 29.5109 28.9549 23.6846 28.9549 16.4985C28.9549 15.626 28.8651 14.7743 28.7018 13.95Z" fill="#FFC107"/>
<path d="M4.43042 10.4418L8.70565 13.5772C9.86246 10.7131 12.664 8.69101 15.9425 8.69101C17.9328 8.69101 19.7434 9.44182 21.1221 10.6682L24.8027 6.98768C22.4787 4.82176 19.37 3.48604 15.9425 3.48604C10.9444 3.48604 6.61 6.30778 4.43042 10.4418Z" fill="#FF3D00"/>
<path d="M15.9423 29.5109C19.3035 29.5109 22.3575 28.2246 24.6665 26.1329L20.6392 22.7249C19.2888 23.7519 17.6388 24.3073 15.9423 24.3059C12.5578 24.3059 9.68402 22.1478 8.60138 19.1361L4.35803 22.4055C6.51159 26.6195 10.8851 29.5109 15.9423 29.5109Z" fill="#4CAF50"/>
<path d="M28.7017 13.95H27.6536V13.896H15.9424V19.101H23.2964C22.7831 20.543 21.8587 21.8031 20.6373 22.7256L20.6392 22.7243L24.6666 26.1322C24.3816 26.3912 28.9548 23.0047 28.9548 16.4985C28.9548 15.626 28.865 14.7743 28.7017 13.95Z" fill="#1976D2"/>
</svg>
