<svg width="29" height="29" viewBox="0 0 29 29" fill="none" xmlns="http://www.w3.org/2000/svg">
<path d="M13.05 23.2H15.95V20.3H13.05V23.2ZM14.5 0C12.5958 0 10.7103 0.375054 8.95109 1.10375C7.19187 1.83244 5.5934 2.9005 4.24695 4.24695C1.52767 6.96623 0 10.6544 0 14.5C0 18.3456 1.52767 22.0338 4.24695 24.753C5.5934 26.0995 7.19187 27.1676 8.95109 27.8963C10.7103 28.6249 12.5958 29 14.5 29C18.3456 29 22.0338 27.4723 24.753 24.753C27.4723 22.0338 29 18.3456 29 14.5C29 12.5958 28.6249 10.7103 27.8963 8.95109C27.1676 7.19187 26.0995 5.5934 24.753 4.24695C23.4066 2.9005 21.8081 1.83244 20.0489 1.10375C18.2897 0.375054 16.4042 0 14.5 0ZM14.5 26.1C8.1055 26.1 2.9 20.8945 2.9 14.5C2.9 8.1055 8.1055 2.9 14.5 2.9C20.8945 2.9 26.1 8.1055 26.1 14.5C26.1 20.8945 20.8945 26.1 14.5 26.1ZM14.5 5.8C12.9617 5.8 11.4865 6.41107 10.3988 7.49878C9.31107 8.58649 8.7 10.0617 8.7 11.6H11.6C11.6 10.8309 11.9055 10.0932 12.4494 9.54939C12.9932 9.00554 13.7309 8.7 14.5 8.7C15.2691 8.7 16.0068 9.00554 16.5506 9.54939C17.0945 10.0932 17.4 10.8309 17.4 11.6C17.4 14.5 13.05 14.1375 13.05 18.85H15.95C15.95 15.5875 20.3 15.225 20.3 11.6C20.3 10.0617 19.6889 8.58649 18.6012 7.49878C17.5135 6.41107 16.0383 5.8 14.5 5.8Z" fill="white"/>
</svg>
