<svg width="29" height="34" viewBox="0 0 29 34" fill="none" xmlns="http://www.w3.org/2000/svg">
<path d="M10.9161 0.0707245C10.3794 0.200573 9.59164 0.659378 9.21075 1.0749C9.0203 1.28266 8.73463 1.7155 8.58746 2.0358C8.3191 2.60714 8.31045 2.65042 8.28448 4.06147L8.24985 5.50714L4.54478 5.53311C0.952239 5.55908 0.831045 5.56774 0.597313 5.74087C0.138507 6.07848 0 6.3555 0 6.90087C0 7.44625 0.138507 7.72326 0.597313 8.06087C0.796418 8.21669 0.986866 8.25132 1.82657 8.26863C2.41522 8.28595 2.81343 8.33789 2.81343 8.38983C2.81343 8.6755 3.93881 28.863 3.98209 29.3477C4.11194 30.7847 4.81313 31.9015 6.04239 32.6459C7.00328 33.2173 6.97731 33.2173 14.4827 33.2173C18.6379 33.2173 21.4081 33.1827 21.6937 33.1307C22.6979 32.9403 23.806 32.1958 24.36 31.3301C24.9919 30.3519 24.9313 30.9319 25.5893 19.2367C25.9182 13.3761 26.1866 8.52833 26.1866 8.44177C26.1866 8.32057 26.3251 8.2946 27.1734 8.26863C28.0131 8.25132 28.2036 8.21669 28.4027 8.06087C28.8615 7.72326 29 7.44625 29 6.90087C29 6.3555 28.8615 6.07848 28.4027 5.74087C28.169 5.56774 28.0478 5.55908 24.4552 5.53311L20.7501 5.50714L20.7155 4.06147C20.6896 2.65042 20.6809 2.60714 20.4125 2.0358C20.0316 1.23072 19.5469 0.728634 18.7591 0.339081L18.1012 0.0187836L14.6818 0.00146866C12.786 -0.00718689 11.1066 0.0274391 10.9161 0.0707245ZM17.7463 2.96207C17.954 3.16117 17.9627 3.21311 17.9627 4.34714V5.5158H14.5H11.0373V4.34714C11.0373 3.21311 11.046 3.16117 11.2537 2.96207L11.4615 2.74565H14.5H17.5385L17.7463 2.96207ZM23.3904 8.9958C23.3645 9.394 23.0961 14.1119 22.8018 19.4964C22.2997 28.7071 22.2651 29.3045 22.0833 29.668C21.9448 29.9624 21.8063 30.1095 21.5119 30.248L21.131 30.4471H14.5H7.86895L7.48806 30.2567C7.19373 30.1095 7.05522 29.9624 6.91672 29.668C6.73492 29.3045 6.7003 28.7158 6.18955 19.4964C5.90388 14.1119 5.63552 9.394 5.60955 8.9958L5.55761 8.28595H14.5H23.4424L23.3904 8.9958Z" fill="white"/>
<path d="M14.3269 15.0986C13.9806 15.4189 12.8553 17.4186 12.7947 17.8168C12.7081 18.4141 13.1496 18.9335 13.7383 18.9335C14.2057 18.9335 14.4914 18.769 14.7511 18.3535L14.9762 17.9899L15.1753 18.3362L15.3744 18.6738L15.0714 18.8556C14.7165 19.0634 14.6126 19.3058 14.7771 19.5481C14.9069 19.7472 17.3741 20.9246 17.6598 20.9246C17.7636 20.9246 17.9021 20.8726 17.9541 20.812C18.0493 20.6908 18.309 18.5526 18.309 17.8947C18.309 17.6869 18.2484 17.5225 18.1359 17.4186C17.9627 17.2628 17.9454 17.2628 17.5559 17.4532C17.3395 17.5571 17.1577 17.635 17.1403 17.6177C17.1317 17.6004 16.8287 17.055 16.4565 16.4058C16.0929 15.7565 15.6947 15.1419 15.5648 15.0467C15.2272 14.7696 14.6645 14.8043 14.3269 15.0986Z" fill="white"/>
<path d="M11.0114 19.8166C9.91196 20.3187 9.63494 20.4745 9.60032 20.639C9.52241 20.9246 9.60897 21.0805 9.94659 21.2796L10.2409 21.4527L9.42718 22.8118C8.56151 24.2575 8.47494 24.5258 8.75196 24.9933C9.02897 25.4608 9.23674 25.5127 10.8209 25.5127C12.4137 25.5127 12.6648 25.4521 12.8985 24.9933C13.3054 24.2055 12.7773 23.4351 11.8164 23.4351H11.4702L11.7385 23.0022C11.8857 22.7599 12.0329 22.5694 12.0588 22.5694C12.0935 22.5781 12.2146 22.63 12.3358 22.6993C12.6561 22.8811 12.9245 22.8551 13.063 22.63C13.1669 22.4655 13.1669 22.2405 13.063 20.9679C12.9332 19.4617 12.8466 19.1846 12.5176 19.2019C12.4397 19.2019 11.7645 19.479 11.0114 19.8166Z" fill="white"/>
<path d="M17.9887 21.4786C17.6511 21.6344 17.3567 22.0846 17.3567 22.4395C17.3567 22.578 17.452 22.8637 17.5732 23.0628L17.7809 23.435H17.3048H16.8373V23.1234C16.8373 22.6819 16.7075 22.4828 16.4045 22.4828C16.2314 22.4828 15.8159 22.7252 14.9762 23.3138C13.7382 24.1881 13.5738 24.3699 13.7123 24.6383C13.8594 24.9067 16.1362 26.4822 16.3872 26.4822C16.6729 26.4822 16.8373 26.2571 16.8373 25.8502V25.5213L18.4388 25.4953L20.0403 25.4693L20.3087 25.201C20.4905 25.0192 20.5857 24.8201 20.6203 24.5777C20.6636 24.2401 20.6117 24.1276 19.9191 22.9589C19.5036 22.2664 19.0794 21.6431 18.9669 21.5738C18.6726 21.3834 18.2917 21.3401 17.9887 21.4786Z" fill="white"/>
</svg>
