<svg width="471" height="594" viewBox="0 0 471 594" fill="none" xmlns="http://www.w3.org/2000/svg">
<g id="Folhagem">
<g id="folha_baixo">
<g id="goiaba">
<path id="Vector" d="M147.955 523.251C147.955 523.251 142.209 532.549 141.174 566.068C141.161 566.518 141.148 567.601 141.812 568.545C142.788 569.926 144.678 570.256 146.034 570.318C148.949 570.594 151.959 570.822 155.057 571C159.519 571.254 163.813 571.374 167.927 571.392C168.115 570.091 173.66 569.035 174.976 568.634C195.875 562.241 202.767 547.825 206.244 526.989C207.809 517.611 209.075 507.512 204.55 498.147C199.62 497.216 187.766 495.661 174.351 500.963C159.305 506.906 151.232 517.941 147.951 523.247L147.955 523.251Z" fill="#97D729"/>
<path id="Vector_2" d="M231.745 506.34C231.762 504.741 231.758 501.662 229.703 499.698C227.786 497.867 225.035 497.938 223.297 497.925C217.046 497.876 210.796 498.067 204.546 498.152C209.071 507.516 207.805 517.62 206.24 526.993C202.763 547.829 191.029 562.647 170.13 569.035C168.814 569.436 168.11 570.091 167.927 571.392C174.191 572.007 181.556 571.935 189.549 570.225C190.922 569.931 192.251 569.601 193.534 569.245C200.15 568.184 204.421 565.792 207.105 563.787C208.447 562.785 212.165 560.669 216.092 556.851C217.492 555.492 221.923 551.028 225.82 543.713C231.415 533.226 231.522 524.263 231.745 506.336V506.34Z" fill="#8BC727"/>
</g>
<g id="aucerola">
<path id="Vector_3" d="M289.699 434.603C284.194 434.55 278.688 434.536 273.182 434.42C272.366 434.403 269.914 434.091 268.978 435.401C268.76 435.704 268.711 435.971 268.448 437.236C267.868 440.029 267.801 440.252 267.757 440.524C264.828 458.446 270.69 473.602 270.69 473.602C277.324 491.012 289.499 502.025 307.63 506.413C315.338 508.28 323.193 507.487 330.994 507.652C335.408 500.118 333.58 491.805 333.157 483.978C332.902 479.291 331.703 468.831 325.627 458.758C314.705 440.657 294.652 435.681 289.699 434.594V434.603Z" fill="#97D72A"/>
<path id="Vector_4" d="M289.7 434.601C298.295 436.789 306.315 440.09 313.466 445.547C326.211 455.268 332.314 468.517 333.157 483.985C333.58 491.812 335.408 500.125 330.995 507.659C337.86 507.735 344.726 507.868 351.591 507.864C355.782 507.864 358.015 505.912 358.234 501.44C358.907 487.696 358.72 473.796 352.777 461.322C349.224 453.869 342.67 447.739 335.364 443.079C326.465 437.404 316.885 434.067 306.181 434.392C300.689 434.561 295.192 434.539 289.7 434.606V434.601Z" fill="#8BC728"/>
</g>
</g>
<g id="mao_da_punheta">
<path id="Vector_5" d="M446.508 242.417C450.694 230.647 458.01 221.893 470.203 217.825C470.189 267.124 470.162 316.423 470.18 365.722C470.185 378.33 465.62 388.991 456.77 397.861C440.739 413.925 424.654 429.945 408.632 446.019C406.925 447.734 404.66 449.106 404.326 451.86C397.768 451.998 391.21 452.136 384.652 452.274C360.543 452.158 336.429 452.042 312.32 451.926C312.311 440.784 312.298 429.642 312.289 418.501C312.356 411.074 312.726 403.63 312.423 396.217C311.714 378.766 319.096 364.738 330.826 352.74C347.419 335.762 364.359 319.114 381.175 302.35C382.619 300.907 384.256 299.655 385.802 298.314C397.228 315.804 392.962 336.965 378.433 349.764C373.485 354.121 369.076 359.089 364.364 363.718C362.42 365.629 360.77 367.682 359.888 370.298C356.883 379.203 357.917 387.734 364.194 394.64C368.144 398.983 372.54 400.747 375.451 401.857C381.237 404.057 386.498 404.24 389.998 404.022C393.127 404.106 398.303 403.844 404.116 401.545C411.592 398.591 416.206 393.833 418.36 391.281C427.931 384.741 435.358 375.987 442.937 367.406C444.181 365.998 444.114 363.967 444.141 362.087C444.702 322.607 442.91 283.104 445.246 243.642L445.264 243.691C445.679 243.263 446.093 242.84 446.508 242.413V242.417Z" fill="#FFB09E"/>
<path id="Vector_6" d="M387.028 550.556C361.836 567.128 333.83 579.785 303.885 587.657C303.778 566.268 303.685 544.88 303.546 523.492C303.475 512.55 303.288 501.613 303.159 490.672C303.315 481.236 303.827 471.782 303.493 462.36C303.257 455.718 305.593 452.221 312.316 451.922C336.425 452.038 360.538 452.154 384.648 452.27L384.652 452.274C386.85 456.359 387.104 460.734 387.091 465.296C387.006 493.714 387.024 522.137 387.028 550.556Z" fill="#FE646F"/>
<path id="Vector_7" d="M425.528 520.146C413.621 531.346 400.741 541.53 387.028 550.556C387.028 522.137 387.006 493.714 387.091 465.296C387.104 460.734 386.85 456.359 384.652 452.274H384.648C391.206 452.136 397.764 451.998 404.321 451.86C409.6 451.967 414.878 452.073 420.152 452.18C420.718 453.33 421.784 453.356 422.845 453.392C425.007 456.337 425.39 459.665 425.39 463.242C425.39 482.211 425.457 501.181 425.528 520.146Z" fill="#FD4755"/>
</g>
<path id="Vector_8" d="M445.242 243.647C442.901 283.109 444.693 322.611 444.136 362.092C444.109 363.976 444.176 366.003 442.933 367.411C435.349 375.991 427.922 384.745 418.355 391.285L417.883 391.357C417.896 354.973 417.905 318.593 417.918 282.209C417.713 266.193 424.712 254.232 438.354 246.048C440.458 244.787 442.629 243.531 445.246 243.647H445.242Z" fill="#FFCEBF"/>
<g id="mao_esquerda">
<path id="Vector_9" d="M68.2722 452.114C52.3301 435.995 36.7626 419.485 20.3346 403.884C6.78653 391.022 0.540773 376.401 0.933082 357.387C1.83807 313.902 1.21393 270.385 1.23177 226.882C1.23177 224.209 1.42794 221.536 1.53048 218.863C14.1201 221.902 25.9473 237.356 25.974 251.122C26.0409 286.584 26.0721 322.046 25.9384 357.512C25.9161 363.299 27.8197 367.856 31.8765 371.83C39.2413 379.047 46.6327 386.246 53.7389 393.718C61.2998 401.661 70.1045 404.338 80.6389 401.211C95.1008 406.86 115.577 394.911 112.884 375.47C112.037 369.349 108.725 364.8 104.712 360.608C99.1398 354.79 93.3131 349.221 87.7227 343.425C76.9119 332.221 76.3814 310.418 85.4134 299.508C85.9395 299.829 86.5592 300.056 86.9827 300.479C106.135 319.569 125.652 338.32 144.251 357.935C153.97 368.186 158.766 381.212 158.744 395.655C158.717 414.433 158.717 433.216 158.709 451.993C154.201 452.087 149.694 452.18 145.187 452.278C120.369 452.256 95.5511 452.234 70.7286 452.216L69.3778 452.14C69.0078 452.114 68.6377 452.109 68.2677 452.118L68.2722 452.114Z" fill="#FFB09E"/>
<path id="Vector_10" d="M63.1543 542.608C63.183 542.627 63.2068 542.646 63.2355 542.665V542.756L63.1543 542.608Z" fill="#FE646F"/>
<path id="Vector_11" d="M147.563 584.2C116.883 574.648 88.4403 560.018 63.2344 541.289C63.3459 515.294 63.5019 489.295 63.5153 463.296C63.5198 458.765 64.0012 454.702 68.272 452.109C68.6421 452.1 69.0121 452.109 69.3821 452.131C69.7967 452.733 70.247 452.773 70.7329 452.207C95.551 452.229 120.369 452.252 145.187 452.27L145.192 452.274C147.403 456.368 147.643 460.756 147.63 465.327C147.536 504.95 147.568 544.577 147.563 584.2Z" fill="#FE646F"/>
<path id="Vector_12" d="M186.014 568.638C186.01 571.058 186.005 573.477 186.001 575.891C185.916 581.669 185.836 587.443 185.751 593.217C172.702 591.083 159.948 588.053 147.563 584.2C147.568 544.577 147.536 504.95 147.63 465.327C147.643 460.756 147.403 456.368 145.192 452.274H145.187C149.699 452.176 154.206 452.082 158.713 451.989C164.606 451.949 170.504 451.909 176.398 451.864C184.311 453.009 185.622 454.519 185.698 462.667C185.809 475.226 185.903 487.78 186.005 500.339C186.01 523.104 186.014 545.873 186.014 568.638Z" fill="#FD4755"/>
<path id="Vector_13" d="M80.6432 401.206C77.6519 402.062 72.7257 403.015 67.006 401.852C61.4111 400.716 57.9071 398.132 52.6154 394.141C42.393 386.425 42.2771 382.228 31.8764 371.826C30.9715 370.921 28.8984 368.881 27.4674 365.553C26.4287 363.138 25.9294 360.483 25.9383 357.503C26.072 322.041 26.0408 286.579 25.9739 251.113C25.9472 237.347 14.1155 221.893 1.53038 218.855C1.17373 215.041 3.84858 214.992 6.38522 215.157C20.3791 216.061 31.7605 221.398 38.5412 234.394C40.1461 237.472 41.8224 240.51 43.4674 243.566C44.1852 250.097 44.631 256.624 44.6087 263.213C44.4972 295.36 44.5507 327.507 44.5775 359.655C44.5775 361.169 44.8449 363.646 45.7053 366.832C49.2896 380.134 60.2565 388.648 68.923 393.704C70.7508 394.56 72.7792 395.633 74.9057 396.988C77.1347 398.404 79.0428 399.852 80.6432 401.202V401.206Z" fill="#F89581"/>
<path id="Vector_14" d="M176.398 451.868C170.505 451.909 164.607 451.949 158.713 451.993C158.722 433.215 158.722 414.433 158.749 395.655C158.771 381.212 153.974 368.186 144.256 357.935C125.656 338.32 106.139 319.573 86.9872 300.479C86.5637 300.056 85.944 299.828 85.418 299.508C86.5949 295.783 89.3678 293.948 92.9922 293.124C93.817 293.124 94.6417 293.128 95.4664 293.133C98.2527 293.4 99.608 295.685 101.324 297.383C121.136 316.953 140.863 336.613 160.724 356.131C169.983 365.232 174.994 377.123 176.563 389.004C177.914 399.228 176.666 410.254 176.447 420.924C176.233 431.233 176.403 441.555 176.403 451.868H176.398Z" fill="#F89581"/>
</g>
<g id="folha_up">
<g id="caja">
<path id="Vector_15" d="M122.651 51.5246C122.651 51.5246 116.62 41.7637 115.532 6.56922C115.519 6.09699 115.501 4.95652 116.205 3.96751C117.23 2.51963 119.214 2.17215 120.641 2.10532C123.704 1.81575 126.86 1.57518 130.114 1.39252C134.8 1.12522 139.307 0.99603 143.627 0.97821C143.823 2.34144 149.645 3.45073 151.027 3.87396C172.974 10.5832 180.205 25.7212 183.856 47.5997C185.497 57.4453 186.83 68.0482 182.077 77.8803C176.902 78.8604 164.455 80.4865 150.372 74.9222C134.572 68.6808 126.098 57.0978 122.656 51.5246H122.651Z" fill="#97D729"/>
<path id="Vector_16" d="M210.627 69.2825C210.65 70.9621 210.641 74.1919 208.483 76.2546C206.472 78.1747 203.583 78.099 201.76 78.1168C195.198 78.1658 188.636 77.9698 182.073 77.8807C186.826 68.0485 185.497 57.4411 183.852 47.6001C180.201 25.7216 167.883 10.1648 145.936 3.45553C144.554 3.03231 143.819 2.34624 143.622 0.978558C150.198 0.332583 157.933 0.408309 166.323 2.20813C167.767 2.51552 169.158 2.86301 170.505 3.23723C177.45 4.35098 181.935 6.8636 184.753 8.96636C186.161 10.0177 190.062 12.2363 194.19 16.2503C195.662 17.6803 200.311 22.367 204.404 30.0429C210.275 41.0557 210.391 50.4646 210.623 69.287L210.627 69.2825Z" fill="#8BC727"/>
</g>
<g id="umbu">
<path id="Vector_17" d="M271.471 144.599C265.689 144.657 259.907 144.666 254.129 144.79C253.273 144.808 250.701 145.138 249.715 143.761C249.488 143.445 249.435 143.164 249.158 141.832C248.552 138.901 248.481 138.665 248.436 138.38C245.364 119.566 251.517 103.648 251.517 103.648C258.48 85.3652 271.266 73.8089 290.302 69.198C298.393 67.2378 306.64 68.0709 314.834 67.8971C319.466 75.8047 317.549 84.5321 317.104 92.7516C316.836 97.6699 315.579 108.656 309.195 119.228C297.729 138.233 276.673 143.458 271.475 144.599H271.471Z" fill="#97D72A"/>
<path id="Vector_18" d="M271.471 144.599C280.494 142.3 288.915 138.834 296.422 133.105C309.801 122.898 316.212 108.99 317.094 92.7515C317.54 84.532 319.462 75.8047 314.825 67.8971C322.034 67.8169 329.243 67.6788 336.451 67.6788C340.851 67.6788 343.196 69.7281 343.428 74.4236C344.133 88.8533 343.941 103.448 337.7 116.546C333.968 124.373 327.089 130.806 319.417 135.702C310.073 141.663 300.016 145.164 288.777 144.826C283.012 144.652 277.239 144.67 271.471 144.603V144.599Z" fill="#8BC728"/>
</g>
</g>
<g id="folha_mid">
<path id="Vector_19" d="M203.255 254.397C202.92 257.519 204.739 264.643 205.212 271.112C205.649 277.113 204.481 276.498 204.868 282.494C205.457 291.627 208.185 293.387 207.285 296.175C204.561 304.609 174.112 305.464 147.841 297.378C127.82 291.217 115.408 281.443 112.368 279.001C93.1135 263.534 81.4378 242.987 78.2102 218.85C78.2102 218.85 72.4994 193.991 77.9338 171.271C78.0764 170.687 78.4286 169.275 79.5832 168.054C81.099 166.45 83.1363 166.076 84.0993 165.92C98.0174 163.671 118.097 166.156 118.097 166.156C118.948 166.161 119.791 166.237 120.629 166.384H120.08C128.702 168.629 137.48 170.17 145.817 173.601C152.455 176.336 158.099 180.796 164.674 183.54C164.608 183.33 164.563 183.094 164.514 182.858C165.584 183.687 166.435 184.413 167.055 184.939C168.112 185.839 168.941 186.6 169.636 187.269C169.899 187.514 170.14 187.745 170.372 187.968C174.076 191.537 176.68 194.949 180.327 198.981C180.599 199.288 180.862 199.6 181.116 199.93C182.846 202.18 184.571 204.438 186.314 206.684C189.657 210.996 192.203 215.66 194.316 220.512C194.459 220.833 194.597 221.158 194.735 221.483C195.038 222.187 195.328 222.9 195.613 223.613C195.783 224.036 195.948 224.463 196.113 224.891C196.278 225.319 196.438 225.751 196.599 226.179C196.67 226.361 196.741 226.544 196.804 226.727C196.937 227.096 197.08 227.479 197.223 227.876C197.299 228.081 197.374 228.281 197.441 228.486C197.481 228.589 197.517 228.696 197.553 228.798C197.798 229.489 198.039 230.179 198.275 230.874C198.4 231.253 198.533 231.645 198.676 232.055C198.774 232.34 198.868 232.621 198.961 232.906C199.171 233.529 199.376 234.149 199.581 234.772C199.639 234.942 199.697 235.111 199.746 235.28C199.902 235.748 200.054 236.216 200.205 236.683C200.468 237.499 200.749 238.372 201.052 239.307C201.19 239.731 201.52 240.755 201.899 242.181C202.073 242.831 202.256 243.562 202.439 244.364C202.96 246.645 203.188 248.244 203.295 249.22C203.344 249.737 203.366 250.075 203.375 250.258C203.482 252.45 203.295 254.062 203.259 254.397H203.255Z" fill="#A2E62E"/>
<path id="Vector_20" d="M292.49 299.824C291.679 299.824 290.872 299.824 290.061 299.824C287.979 299.824 285.901 299.815 283.819 299.811C273.107 299.886 262.394 299.967 251.681 300.042C251.668 270.568 251.659 241.089 251.646 211.615C257.196 205.677 261.337 198.615 267.235 192.904C279.076 181.441 292.749 173.409 308.687 169.221C311.023 168.709 314.379 168.036 318.445 167.435C320.656 167.11 327.856 166.103 342.523 165.849C347.949 165.755 354.975 165.755 363.227 166.072C364.1 169.199 365.099 173.414 365.781 178.47C365.968 179.873 366.32 182.72 366.508 186.721C366.967 196.308 366.133 204.492 365.71 208.149C364.368 219.683 363.521 228.803 359.375 239.325C351.89 258.308 340.526 270.065 337.94 272.573C330.081 280.191 322.038 284.993 315.895 288.655C311.986 290.99 305.9 294.3 301.884 295.908C301.487 296.068 299.302 296.933 296.333 298.18C294.675 298.875 293.333 299.454 292.495 299.82L292.49 299.824Z" fill="#97D729"/>
<path id="Vector_21" d="M251.65 211.615C252.123 297.721 251.708 288.678 251.686 300.042C251.646 321.671 251.633 343.3 251.552 364.929C251.53 371.581 247.723 377.163 242.355 378.713C233.814 381.181 226.864 375.532 226.797 365.691C226.663 346.535 226.761 327.378 226.748 308.217C226.748 305.54 226.654 302.862 226.601 300.189C226.645 270.697 226.69 241.21 226.734 211.718C226.734 211.388 225.41 205.244 226.676 197.502C228.058 189.086 231.13 186.703 231.901 186.146C234.83 184.034 238.299 183.941 239.832 183.905C241.678 183.856 244.058 183.794 246.345 185.291C248.329 186.587 249.212 188.382 249.934 189.852C251.392 192.824 251.615 195.68 251.557 197.613C251.579 200.847 251.615 205.708 251.646 211.611L251.65 211.615Z" fill="#8BC727"/>
<path id="Vector_22" d="M291.456 299.824C292.031 296.532 295.063 296.781 297.216 296.082C326.385 286.602 347.035 268.002 358.336 239.334C362.286 229.319 364.644 218.97 364.671 208.158C364.698 198.264 364.533 188.369 364.742 178.479C364.836 174.077 364.408 169.934 362.188 166.081C373.306 166.014 384.425 165.978 395.543 165.871C399.863 165.827 403.091 167.671 403.055 172.064C402.895 190.672 404.74 209.379 400.759 227.836C400.603 228.905 400.443 229.97 400.287 231.039C399.97 232.246 399.654 233.454 399.337 234.661C395.927 244.342 386.088 267.895 361.849 283.969C345.965 294.505 330.299 297.659 324.116 298.741C313.252 300.644 302.356 300.06 291.452 299.833L291.456 299.824Z" fill="#8BC727"/>
<path id="Vector_23" d="M226.739 211.722C226.694 241.214 226.649 270.702 226.6 300.194C217.555 300.042 207.183 300.327 199.455 301.266V271.575C199.5 265.748 199.535 259.925 199.576 254.098C199.683 253.091 199.776 251.661 199.691 249.959C199.678 249.719 199.66 249.38 199.611 248.921C199.482 247.692 199.277 246.832 198.742 244.725C198.465 243.638 198.229 242.724 198.051 242.052C197.841 241.276 197.627 240.501 197.418 239.722C196.95 237.806 196.682 236.87 196.522 236.38C196.499 236.314 196.29 235.766 196.063 234.977C196.014 234.808 195.956 234.638 195.898 234.469C195.693 233.845 195.488 233.226 195.278 232.603C195.184 232.317 195.091 232.037 194.993 231.752C194.863 231.36 194.73 230.963 194.591 230.571C194.355 229.876 194.114 229.186 193.869 228.495C193.834 228.393 193.798 228.286 193.758 228.183C193.691 227.978 193.615 227.778 193.539 227.573C193.406 227.19 193.263 226.807 193.12 226.423C193.058 226.241 192.987 226.058 192.915 225.876C192.759 225.443 192.594 225.016 192.429 224.588C192.264 224.16 192.099 223.733 191.93 223.309C191.645 222.597 191.355 221.884 191.052 221.18C190.914 220.855 190.775 220.53 190.633 220.209C188.52 215.357 185.974 210.693 182.63 206.38C180.887 204.135 179.162 201.876 177.432 199.627C177.178 199.297 176.915 198.985 176.643 198.678C172.997 194.646 170.393 191.233 166.688 187.665C166.457 187.442 166.216 187.211 165.953 186.966C165.257 186.297 164.428 185.536 163.372 184.636C162.752 184.11 161.9 183.384 160.83 182.555C160.88 182.791 160.924 183.027 160.991 183.237C154.415 180.492 148.771 176.033 142.133 173.298C133.797 169.867 125.019 168.326 116.397 166.081H146.11C147.372 166.17 148.709 166.299 150.104 166.486C151.348 166.655 152.534 166.851 153.649 167.065C182.813 168.598 204.725 182.845 221.835 205.685C223.373 207.739 223.894 210.706 226.739 211.718V211.722Z" fill="#97D72A"/>
<path id="Vector_24" d="M190.633 220.213C188.529 215.437 186.014 210.844 182.715 206.599C180.847 204.193 178.997 201.77 177.143 199.355C173.411 195.23 169.684 191.1 165.953 186.97C166.216 187.215 166.457 187.447 166.689 187.67C170.393 191.238 172.997 194.65 176.643 198.682C176.915 198.99 177.178 199.301 177.432 199.631C179.162 201.881 180.887 204.14 182.631 206.385C185.974 210.697 188.52 215.362 190.633 220.213Z" fill="#97D729"/>
</g>
</g>
</svg>
